+15_ID_stride4.mot
nRows=11
nColumns=38

name +15_ID_stride4.mot
datacolumns 38
datarows 11
range 1.7400000000 1.7900000000
endheader
time	pelvis_tilt_moment	pelvis_list_moment	pelvis_rotation_moment	pelvis_tx_force	pelvis_ty_force	pelvis_tz_force	hip_flexion_r_moment	hip_adduction_r_moment	hip_rotation_r_moment	knee_angle_r_moment	ankle_angle_r_moment	subtalar_angle_r_moment	mtp_angle_r_moment	hip_flexion_l_moment	hip_adduction_l_moment	hip_rotation_l_moment	knee_angle_l_moment	ankle_angle_l_moment	subtalar_angle_l_moment	mtp_angle_l_moment	lumbar_extension_moment	lumbar_bending_moment	lumbar_rotation_moment	arm_flex_r_moment	arm_add_r_moment	arm_rot_r_moment	elbow_flex_r_moment	pro_sup_r_moment	wrist_flex_r_moment	wrist_dev_r_moment	arm_flex_l_moment	arm_add_l_moment	arm_rot_l_moment	elbow_flex_l_moment	pro_sup_l_moment	wrist_flex_l_moment	wrist_dev_l_moment
        1.7400000000	       24.1129751541	       32.3943812331	      -11.2903628997	      -30.8003544928	      388.9966214495	      224.2603846989	      -84.7248613958	      -36.5126743875	       11.3118326864	      -18.5153450729	        8.4028551700	        7.8439654268	        0.2501586520	       91.9983707802	      -47.3020773488	       12.3030260831	       37.8891530286	        4.7649985662	       -1.2969225423	        0.2019832943	       54.7738423809	      -34.4938216707	        1.3219642095	       -2.2278350871	        0.6825332614	        0.6320672587	        2.3970266514	       -0.0155086901	        0.1214154663	       -0.1759328364	       -3.8454152451	        1.0744349527	        0.8218647177	        1.7311042056	       -0.0273255010	        0.1109664420	       -0.1368779984	
        1.7450000000	       53.7620921678	       79.2639989787	       -5.1692160314	      -27.6439197149	      371.0696189048	      123.2862988926	      -46.1333639572	      -49.7756663880	       15.9345241658	        2.3808543624	       -0.5641052096	       10.4542001171	        0.2844389372	       91.7498282412	      -36.0105456378	       12.0243544487	       38.4600107201	        5.1041987088	       -1.2589013240	        0.2399502429	       59.2736609339	      -39.5212662429	       -0.0790213074	       -2.1070693256	        1.2599989130	        0.8126878604	        2.8677852756	       -0.0224144586	        0.1398482540	       -0.2147888869	       -3.4450758210	        0.7017136865	        0.7104488301	        2.2487449948	       -0.0388987861	        0.1137056309	       -0.1823345679	
        1.7500000000	       75.0013557219	      105.3701894451	        3.8360985717	       -9.6000871631	      296.9065014416	        8.2740505818	      -32.3346688119	      -63.1927001377	       23.7399521323	       13.4176603933	      -16.5059833706	       15.1290449917	        0.2903573891	       92.3092636891	      -24.4317519287	       11.2553350461	       38.8922645463	        5.3467984748	       -1.2173177588	        0.2697015447	       58.7914540447	      -39.0907115631	       -0.0613251459	       -1.6432084268	        1.6685273468	        0.9433418874	        3.1566668547	       -0.0266047369	        0.1533567177	       -0.2404642067	       -2.7570068114	        0.4129550489	        0.5108808972	        2.5999210070	       -0.0492664236	        0.1076928868	       -0.2170625721	
        1.7550000000	       79.0855767211	      106.3880855169	       14.7590955684	       25.1551466003	      168.5239258181	      -71.7546475615	      -35.5467769906	      -67.1732203312	       33.9762362749	       14.7658591868	      -36.3581355423	       22.1159427236	        0.2856559517	       92.5066401682	      -13.7983423538	       10.0419786773	       38.8755949297	        5.4006166788	       -1.1610981831	        0.2838732374	       55.0548342298	      -34.5122704794	        0.7827063800	       -0.9243196611	        1.7696022997	        0.9967713452	        3.2272116504	       -0.0285599278	        0.1607060863	       -0.2470610924	       -2.0584610036	        0.3424777360	        0.3236423578	        2.7724025386	       -0.0562744868	        0.0911716324	       -0.2362294652	
        1.7600000000	       67.4912871959	       75.2559519146	       25.8226376876	       63.4127901822	       27.4239393416	     -113.3025053712	      -69.7098394462	      -65.3304511709	       43.6399264842	        8.8554099043	      -56.8186843761	       30.5660212509	        0.2520911372	       90.3021109891	       -4.6783435530	        8.5768753743	       37.9404432053	        5.3168656298	       -1.0833627384	        0.2887243894	       48.6865371308	      -24.5523996148	        2.7559377834	       -0.2323252032	        1.7251073368	        1.0136626102	        3.2225970396	       -0.0293672472	        0.1647662266	       -0.2470284513	       -1.5238132001	        0.3993510022	        0.1794949434	        2.8498568182	       -0.0606110376	        0.0733826868	       -0.2455479368	
        1.7650000000	       38.7509159457	       28.6974455555	       33.1857896888	       91.2431109565	      -85.9630953795	      -95.3192452922	     -111.6071682508	      -53.3751748599	       45.7547216329	        3.4271095992	      -74.0896608882	       37.7665214550	        0.2078374355	       84.9747273099	        1.9016000111	        7.1588016942	       36.0343361149	        5.0627258722	       -0.9881474205	        0.2804168983	       43.0653817408	      -13.2174805430	        5.1161833679	        0.2183974729	        1.5590458072	        1.0443168673	        3.1938138226	       -0.0292647868	        0.1719360249	       -0.2411647536	       -1.3773757543	        0.5672397819	        0.0918562070	        2.9101683824	       -0.0637159253	        0.0587046417	       -0.2498505931	
        1.7700000000	       -0.5134647360	      -16.0111008619	       33.8535081505	       94.5339858872	     -146.0529537366	      -51.6749981583	     -145.0727245858	      -34.9259364626	       42.4002397455	        6.2265138194	      -87.0542344404	       41.9405966930	        0.1565898146	       77.0900956911	        5.7006057386	        5.9402470071	       33.2572791504	        4.6733419504	       -0.8820641396	        0.2624669282	       39.3042684713	       -2.7102789619	        7.7032225388	        0.4950096941	        1.5292503243	        1.1381253003	        3.2488109518	       -0.0293214530	        0.1875033678	       -0.2414184883	       -1.4471478988	        0.7067977389	        0.0010810788	        3.0501927449	       -0.0689542624	        0.0460130437	       -0.2598625663	
        1.7750000000	      -36.3200146520	      -37.1423255997	       31.9088124713	       88.3922159968	     -152.8829943878	      -10.2927505517	     -152.4574996699	      -18.5203234442	       32.6418270038	       20.7192174607	      -96.2574479684	       43.0799911125	        0.1068173963	       68.8726291443	        6.7100665553	        4.9222851108	       30.1457021078	        4.2419996332	       -0.7710279532	        0.2393215448	       38.3767303384	        3.7891207238	       10.2697734352	        0.7765119252	        1.6350705418	        1.3505125169	        3.5068176644	       -0.0299956588	        0.2167383301	       -0.2529858490	       -1.5366456130	        0.7083996414	       -0.1417184030	        3.3714379399	       -0.0795385256	        0.0329646990	       -0.2857416548	
        1.7800000000	      -56.1031357433	      -40.4059812019	       28.2847181306	       61.9639514917	     -115.4049581888	        3.6249291678	     -143.5253284177	      -10.8278260726	       24.3801417495	       47.2419828490	     -103.3551256681	       43.3544059117	        0.0644941393	       62.4400180280	        6.6560306350	        3.9616834052	       27.2081891795	        3.8360731696	       -0.6550167443	        0.2153968211	       38.5199721304	        5.6157482697	       12.6753059851	        1.2525897045	        2.1366838873	        1.6881333461	        4.0546840366	       -0.0324849080	        0.2607409647	       -0.2893628492	       -1.5159191757	        0.5125027567	       -0.3899223529	        3.9341138648	       -0.0982126544	        0.0172190359	       -0.3361099270	
        1.7850000000	      -60.3335824491	      -27.2912947888	       27.3035257637	       30.1718286232	      -37.9995549843	      -14.8625873933	     -117.9989394076	      -10.1613629982	       21.5847413042	       75.9668190319	     -110.3668887436	       44.4477741492	        0.0333614346	       59.0355640134	        5.6928074780	        2.8180696455	       24.7718347121	        3.4988413794	       -0.5288680707	        0.1938156440	       40.6537438966	        2.0641152652	       14.8234799888	        2.1371970480	        2.9464167346	        2.1142770367	        4.8891683416	       -0.0374265237	        0.3161170186	       -0.3508597849	       -1.0392217567	        0.1062506730	       -0.7517227365	        4.7312057458	       -0.1250866336	       -0.0022192311	       -0.4120043484	
        1.7900000000	      -44.7847811217	      -17.2022125295	       32.9891554484	       -0.0333533242	       51.5082796434	      -59.4312008979	      -96.8156878129	      -18.0356667501	       29.1020157956	       98.0003259175	     -119.9010549413	       48.7412950344	        0.0138952115	       58.8426367078	        5.5705552165	        1.2261750712	       22.8972666834	        3.2414681726	       -0.3848915309	        0.1762089689	       43.5980566695	       -6.1520369456	       16.6555533049	        3.4431743815	        3.9473863284	        2.5658040190	        5.9444819977	       -0.0450501383	        0.3763862937	       -0.4335394402	       -0.1499675978	       -0.3937486216	       -1.1828538662	        5.6963936572	       -0.1576875627	       -0.0234908569	       -0.5073830679	
